<svg id="my-icon" aria-labelledby="svg-my-icon-title" focusable="false" xmlns="http://www.w3.org/2000/svg" viewBox="0 0 290 290">
<title id="svg-my-icon-title">Checkmark Icon</title>
<path d="M0 0h24v24H0z" x="50%" y="50%"  fill="none"/><path d="M9 11H7v2h2v-2zm4 0h-2v2h2v-2zm4 0h-2v2h2v-2zm2-7h-1V2h-2v2H8V2H6v2H5c-1.11 0-1.99.9-1.99 2L3 20c0 1.1.89 2 2 2h14c1.1 0 2-.9 2-2V6c0-1.1-.9-2-2-2zm0 16H5V9h14v11z"/>
<circle class="circle" cx="145" cy="145" r="124.67" style="fill:none;stroke:#cfd8dc;stroke-miterlimit:10;stroke-width:20px"/>
<polyline class="checkmark" points="88.75 148.26 124.09 183.6 201.37 106.32" style="fill:none;stroke:#21b587;stroke-linecap:round;stroke-linejoin:round;stroke-width:25px"/>
</svg>