
<svg id="my-icon" aria-labelledby="svg-my-icon-title"  xmlns="http://www.w3.org/2000/svg" viewBox="0 0 75 75">
<title id="svg-my-icon-title">Checkmark Icon</title>
    <!-- <path  d="M0 0h24v24H0z" fill="none"/><path transform="translate(25, 25)" d="M20 3h-1V1h-2v2H7V1H5v2H4c-1.1 0-2 .9-2 2v16c0 1.1.9 2 2 2h16c1.1 0 2-.9 2-2V5c0-1.1-.9-2-2-2zm0 18H4V8h16v13z"/> -->

<!-- <circle 
    cx="37.25" 
    cy="37.25" 
    r="20" 
    style="fill:none;stroke:#cfd8dc;stroke-miterlimit:10;stroke-width:5px"/>
<polyline 
    class="checkmark" 
    points="11 18 17.25 22.5 25 13" 
    transform="translate(20, 20)"
    style="fill:none;stroke:#21b587;stroke-linecap:round;stroke-linejoin:round;stroke-width:3.5px"/> -->

</svg>