<?xml version="1.0" encoding="UTF-8" standalone="no"?>
<!DOCTYPE svg PUBLIC "-//W3C//DTD SVG 1.1//EN" "http://www.w3.org/Graphics/SVG/1.1/DTD/svg11.dtd">
<svg version="1.1" xmlns="http://www.w3.org/2000/svg" xmlns:xlink="http://www.w3.org/1999/xlink" preserveAspectRatio="xMidYMid meet" viewBox="0 0 640 640" width="640" height="640"><defs>
<path d="M328.51 250.82L328.51 250.69L328.52 250.55L328.54 250.42L328.56 250.29L328.59 250.16L328.62 250.04L328.66 249.91L328.7 249.79L328.75 249.67L328.8 249.55L328.86 249.43L328.93 249.32L329 249.21L329.07 249.1L329.15 248.99L329.23 248.89L329.32 248.79L329.41 248.69L329.51 248.6L329.6 248.51L329.71 248.42L329.82 248.34L329.93 248.26L330.04 248.18L330.16 248.11L330.28 248.04L330.4 247.98L330.53 247.92L330.66 247.86L330.79 247.81L330.93 247.76L331.07 247.72L331.21 247.68L331.35 247.65L331.49 247.62L331.64 247.6L331.79 247.58L331.94 247.56L332.09 247.56L332.25 247.55L347.2 247.55L347.35 247.56L347.5 247.56L347.65 247.58L347.8 247.6L347.95 247.62L348.09 247.65L348.24 247.68L348.38 247.72L348.52 247.76L348.65 247.81L348.78 247.86L348.91 247.92L349.04 247.98L349.17 248.04L349.29 248.11L349.4 248.18L349.52 248.26L349.63 248.34L349.74 248.42L349.84 248.51L349.94 248.6L350.03 248.69L350.13 248.79L350.21 248.89L350.3 248.99L350.37 249.1L350.45 249.21L350.52 249.32L350.58 249.43L350.64 249.55L350.7 249.67L350.74 249.79L350.79 249.91L350.83 250.04L350.86 250.16L350.89 250.29L350.91 250.42L350.92 250.55L350.93 250.69L350.93 250.82L350.93 285.13L365.88 299.83L350.93 299.83L350.93 345.58L317.66 345.58L317.66 345.57L317.66 345.42L317.66 313.69L317.66 313.54L317.65 313.4L317.63 313.26L317.61 313.12L317.58 312.98L317.55 312.84L317.51 312.71L317.46 312.57L317.41 312.44L317.36 312.31L317.29 312.19L317.23 312.07L317.16 311.95L317.08 311.83L317 311.72L316.91 311.6L316.82 311.5L316.73 311.39L316.63 311.29L316.53 311.19L316.42 311.1L316.31 311.01L316.2 310.92L316.08 310.84L315.96 310.76L315.83 310.69L315.7 310.62L315.57 310.55L315.44 310.49L315.3 310.44L315.16 310.39L315.02 310.34L314.87 310.3L314.73 310.26L314.58 310.23L314.43 310.21L314.27 310.19L314.12 310.17L313.96 310.16L313.8 310.16L298.37 310.16L298.21 310.16L298.05 310.17L297.9 310.19L297.74 310.21L297.59 310.23L297.44 310.26L297.29 310.3L297.15 310.34L297.01 310.39L296.87 310.44L296.73 310.49L296.6 310.55L296.46 310.62L296.34 310.69L296.21 310.76L296.09 310.84L295.97 310.92L295.86 311.01L295.75 311.1L295.64 311.19L295.54 311.29L295.44 311.39L295.34 311.5L295.25 311.6L295.17 311.72L295.09 311.83L295.01 311.95L294.94 312.07L294.87 312.19L294.81 312.31L294.76 312.44L294.71 312.57L294.66 312.71L294.62 312.84L294.59 312.98L294.56 313.12L294.54 313.26L294.52 313.4L294.51 313.54L294.51 313.69L294.51 345.42L294.51 345.57L294.51 345.58L261.23 345.58L261.23 299.83L246.28 299.83L306.08 241.02L328.51 263.07L328.51 250.82Z" id="a3x8H9tDF"></path></defs><g><g><g>
<use xlink:href="#a3x8H9tDF" opacity="1" fill="#ffffff" fill-opacity="1"></use><g>
<use xlink:href="#a3x8H9tDF" opacity="1" fill-opacity="0" stroke="#000000" stroke-width="2" stroke-opacity="1"></use></g></g></g></g></svg>