<?xml version="1.0" encoding="UTF-8" standalone="no"?>
<!DOCTYPE svg PUBLIC "-//W3C//DTD SVG 1.1//EN" "http://www.w3.org/Graphics/SVG/1.1/DTD/svg11.dtd">
<svg version="1.1" xmlns="http://www.w3.org/2000/svg" xmlns:xlink="http://www.w3.org/1999/xlink" preserveAspectRatio="xMidYMid meet" viewBox="0 0 640 640" width="640" height="640"><defs><path d="M437.33 156.84C446.36 156.84 453.69 164.17 453.69 173.2C453.69 215.19 453.69 324.81 453.69 366.8C453.69 375.83 446.36 383.16 437.33 383.16C395.13 383.16 284.87 383.16 242.67 383.16C233.64 383.16 226.31 375.83 226.31 366.8C226.31 324.81 226.31 215.19 226.31 173.2C226.31 164.17 233.64 156.84 242.67 156.84C284.87 156.84 395.13 156.84 437.33 156.84Z" id="d1pZ11Ly4q"></path><path d="M345 340C345 347.66 339.4 353.87 332.5 353.87C325.6 353.87 320 347.66 320 340C320 332.34 325.6 326.13 332.5 326.13C339.4 326.13 345 332.34 345 340Z" id="c40AmHPhMx"></path><path d="" id="d86GnQ1j0"></path><path d="" id="clxk5zH7P"></path><path d="M331.6 313.99C332.09 309.11 330.33 310.53 331.81 299.71C332.8 292.49 340.7 284.52 355.52 275.78C372.92 265.6 381.73 253.12 381.94 238.34C382.27 216.17 380.32 203.23 365.33 193.44C350.34 183.65 334.69 184.8 320.77 189.64C311.48 192.86 303.9 201.2 298.03 214.65" id="c1i2uDbRkT"></path></defs><g><g><g><use xlink:href="#d1pZ11Ly4q" opacity="1" fill="#ffffff" fill-opacity="1"></use><g><use xlink:href="#d1pZ11Ly4q" opacity="1" fill-opacity="0" stroke="#000000" stroke-width="1" stroke-opacity="1"></use></g></g><g><use xlink:href="#c40AmHPhMx" opacity="1" fill="#000000" fill-opacity="1"></use></g><g><g><use xlink:href="#d86GnQ1j0" opacity="1" fill-opacity="0" stroke="#103f4b" stroke-width="1" stroke-opacity="1"></use></g></g><g><g><use xlink:href="#clxk5zH7P" opacity="1" fill-opacity="0" stroke="#103f4b" stroke-width="1" stroke-opacity="1"></use></g></g><g><g><use xlink:href="#c1i2uDbRkT" opacity="1" fill-opacity="0" stroke="#000000" stroke-width="19" stroke-opacity="1"></use></g></g></g></g></svg>