<?xml version="1.0" encoding="UTF-8" standalone="no"?>
<!DOCTYPE svg PUBLIC "-//W3C//DTD SVG 1.1//EN" "http://www.w3.org/Graphics/SVG/1.1/DTD/svg11.dtd">
    <svg version="1.1" xmlns="http://www.w3.org/2000/svg" xmlns:xlink="http://www.w3.org/1999/xlink" id="link-icon" preserveAspectRatio="xMidYMid meet" viewBox="0 0 640 640" width="160" height="160">
        <defs>
            <path class="bubble" d="M441.77 274.81C442.18 353.05 378.99 416.91 300.75 417.32C222.51 417.73 158.65 354.55 158.23 276.3C157.82 198.06 221.01 134.2 299.25 133.79C377.49 133.38 441.35 196.56 441.77 274.81Z" id="b1a5q1ddrd"></path>
            <path class="right-bracket" d="M310 322.96L353.33 322.96C367.19 322.88 377.73 318.83 384.96 310.81C392.18 302.79 396.08 290.8 396.67 274.84C396.76 260.09 393.2 248.7 385.98 240.68C378.76 232.66 368.95 228.25 356.56 227.45L310 226.71" id="b3EtZOcUoM"></path>
            <path class="left-bracket" d="M290 322.96L246.67 322.96C232.81 322.88 222.27 318.83 215.04 310.81C207.82 302.79 203.92 290.8 203.33 274.84C203.24 260.09 206.8 248.7 214.02 240.68C221.24 232.66 231.05 228.25 243.44 227.45L290 226.71" id="cMAfC6uis"></path>
            <path class="center-dash" d="M345 275.56L255 275.56" id="a1P0jjktlN"></path>
            <path class="arrow-left"  d="M326.67 256.67L293.33 223.33" id="emV76A98x"></path>
            <path class="arrow-right"   d="M273.33 256.67L306.67 223.33" id="b73rkNrAy"></path>
        </defs>
        <g><g><g>
            <use xlink:href="#b1a5q1ddrd" opacity="1" fill="#cefefd" fill-opacity="1"></use>
        <g>
            <use xlink:href="#b1a5q1ddrd" opacity="1" fill-opacity="0" stroke="#00f0ff" stroke-width="17" stroke-opacity="1"></use>
        </g></g>
        <g><g>
            <use xlink:href="#b3EtZOcUoM" opacity="1" fill-opacity="0" stroke="#000000" stroke-width="18" stroke-opacity="1"></use>
        </g></g>
        <g><g>
            <use xlink:href="#cMAfC6uis" opacity="1" fill-opacity="0" stroke="#000000" stroke-width="18" stroke-opacity="1"></use>
        </g></g>
        <g><g><use xlink:href="#b73rkNrAy" opacity="1" fill-opacity="0" stroke="#000000" stroke-width="21" stroke-opacity="1"></use></g></g>
        <g><g><use xlink:href="#emV76A98x" opacity="1" fill-opacity="0" stroke="#000000" stroke-width="21" stroke-opacity="1"></use></g></g>
        <g><g>
            <use xlink:href="#a1P0jjktlN" opacity="1" fill-opacity="0"  stroke="#000000" stroke-width="21" stroke-opacity="1"></use>
        </g></g></g></g>
    </svg>